<svg xmlns="http://www.w3.org/2000/svg" version="1.1" xmlns:xlink="http://www.w3.org/1999/xlink" xmlns:svgjs="http://svgjs.dev/svgjs" width="1500" height="1500" viewBox="0 0 1500 1500"><rect width="1500" height="1500" fill="#0a1627"></rect><g transform="matrix(0.6666666666666666,0,0,0.6666666666666666,249.39393939393938,551.9760658329071)"><svg viewBox="0 0 396 157" data-background-color="#0a1627" preserveAspectRatio="xMidYMid meet" height="594" width="1500" xmlns="http://www.w3.org/2000/svg" xmlns:xlink="http://www.w3.org/1999/xlink"><g id="tight-bounds" transform="matrix(1,0,0,1,0.2400000000000091,0.009489051094888623)"><svg viewBox="0 0 395.52 156.98102189781022" height="156.98102189781022" width="395.52"><g><svg viewBox="0 0 395.52 156.98102189781022" height="156.98102189781022" width="395.52"><g><svg viewBox="0 0 395.52 156.98102189781022" height="156.98102189781022" width="395.52"><g id="textblocktransform"><svg viewBox="0 0 395.52 156.98102189781022" height="156.98102189781022" width="395.52" id="textblock"><g><svg viewBox="0 0 395.52 156.98102189781022" height="156.98102189781022" width="395.52"><g transform="matrix(1,0,0,1,0,0)"><svg width="395.52" viewBox="3.65 -35.5 109.58999999999999 43.5" height="156.98102189781022" data-palette-color="#fe0039"><path d="M23.65-5.65L22.95-4.35 3.65-15.55 3.65-16.95 22.95-28.1 23.65-26.85 5.15-16.25 23.65-5.65ZM34.25 0L26.35 0 26.45-0.5 27.6-0.8Q29.9-1.45 30.3-3.7L30.3-3.7 35-28.85 34.85-29.4Q34.8-31.2 33.25-32.25L33.25-32.25 32.9-32.5 33-33 41.5-33 47.9-8.3 62.65-33 71.45-33 71.35-32.5 70.35-32.05Q68.55-31.3 68.2-29.25L68.2-29.25 65.75-15.55Q65.2-12.55 64.65-9.5 64.1-6.45 63.6-3.4L63.6-3.4Q63.25-1.3 65.35-0.65L65.35-0.65 65.75-0.5 65.65 0 53.7 0 53.8-0.5 54.3-0.65Q56.4-1.3 56.75-3.45L56.75-3.45 61.15-27.4 44.8 0 42.95 0 35.95-27.3 31.65-3.8Q31.2-1.5 33.45-0.75L33.45-0.75 34.35-0.5 34.25 0ZM68.2 8L66.7 8 88.95-35.5 90.45-35.5 68.2 8ZM93.24-26.85L93.94-28.15 113.24-16.95 113.24-15.55 93.94-4.4 93.24-5.65 111.74-16.25 93.24-26.85Z" opacity="1" transform="matrix(1,0,0,1,0,0)" fill="#fe0039" class="wordmark-text-0" data-fill-palette-color="primary" id="text-0"></path></svg></g></svg></g></svg></g></svg></g><g></g></svg></g><defs></defs></svg><rect width="395.52" height="156.98102189781022" fill="none" stroke="none" visibility="hidden"></rect></g></svg></g></svg>